<svg width="117" height="123" viewBox="0 0 117 123" fill="none" xmlns="http://www.w3.org/2000/svg">
<path d="M69.2394 89.8602C59.5802 96.2226 49.5047 101.924 39.4344 107.586C37.1849 102.55 34.7394 97.5539 32.2919 92.5485C33.7688 92.0185 34.9192 91.4826 35.287 91.0993C51.3023 74.3446 67.401 57.6096 84.8079 42.4914C83.1394 45.0307 81.1929 47.3754 80.0143 49.019C75.7396 54.9752 71.0266 60.5703 66.2774 66.1137C56.7816 77.1987 47.1415 88.1562 40.0307 101.126C38.9355 103.123 44.2154 102.386 44.6583 102.319C47.5589 101.881 50.914 100.952 53.2987 99.0098C64.9099 89.5515 76.9142 80.7138 89.284 72.4715C83.6179 79.3152 76.6174 85.0018 69.2394 89.8602ZM21.0166 10.6188C21.6134 9.54845 22.4244 8.56289 23.1476 7.5771C23.3244 7.67584 23.5002 7.77419 23.677 7.87293C24.6967 9.43443 27.0133 10.6128 28.2439 12.1845C29.32 13.5658 30.2659 15.098 31.1114 16.6461C32.2456 18.7252 33.2212 20.9204 34.0942 23.1847C33.2083 23.458 32.5595 23.6814 32.3918 23.7519C26.3625 26.2999 20.5688 29.3295 15.0001 32.7964C15.0142 32.549 15.0159 32.3044 15.0313 32.0562C15.5044 24.584 17.37 17.1942 21.0166 10.6188ZM45.6564 63.0082C48.4637 62.7124 52.5123 61.1131 54.859 59.7831C50.6663 63.8194 46.528 67.9213 42.4292 72.0673C43.5046 69.0475 44.58 66.0277 45.6564 63.0082ZM23.2645 70.0884C26.4081 67.8068 29.5516 65.5253 32.6952 63.2437C30.6419 69.0067 28.59 74.7688 26.537 80.5307C25.0452 77.2894 23.6169 74.028 22.3028 70.73C22.6312 70.5281 22.9525 70.3145 23.2645 70.0884ZM36.908 52.4339C34.3729 54.2736 31.8388 56.1137 29.3037 57.9533C31.3462 53.6473 33.3898 49.3415 35.4324 45.0355C36.4448 42.9014 37.4663 40.7847 38.4315 38.6545C39.2674 42.724 39.9598 46.8438 40.6406 50.8978C38.7738 51.5401 37.2754 52.167 36.908 52.4339ZM14.9974 40.2441C15.3074 40.0419 15.6108 39.8342 15.896 39.6091C19.9224 36.4356 24.0977 33.6129 28.4353 31.1006C26.7918 37.6714 23.4917 43.7582 20.5974 49.8609C19.5743 52.0165 18.5511 54.172 17.529 56.3279C16.1876 51.1087 15.2826 45.7634 14.9974 40.2441ZM72.5991 38.1587C77.946 31.8174 83.406 24.6375 89.9427 19.5855C94.0894 16.3748 97.5295 21.669 99.6068 27.0583C96.1799 26.5608 89.6466 29.6892 88.0725 30.8894C77.4406 39.0305 67.3788 47.8822 57.64 57.1263C62.4458 50.65 67.4135 44.3088 72.5991 38.1587ZM98.9334 56.1523C98.3057 57.8097 97.5912 59.406 96.8206 60.9632C85.7955 67.5878 75.0325 74.6782 64.5381 82.1985C69.8813 75.1672 75.7129 68.5282 81.4473 61.803C86.1801 56.2525 90.8519 50.6188 95.0369 44.5993C96.865 41.9688 100.273 37.8994 101.587 33.9403C101.614 34.1072 101.641 34.262 101.664 34.4032C102.737 41.7145 101.566 49.2208 98.9334 56.1523ZM116.143 38.1543C116.556 30.3882 114.856 19.6008 108.23 15.0414C101.544 10.4531 91.0225 13.3551 84.1607 16.6608C76.135 20.5342 70.2596 27.7444 64.3521 34.4357C60.9629 38.2737 57.6686 42.1973 54.4371 46.1777C53.2533 40.1054 52.0449 34.0385 50.6356 28.0365C48.7986 20.2177 46.1883 12.2882 40.8863 6.3603C35.2745 0.0878273 27.9207 -0.238475 20.2612 2.36489C12.7686 4.90485 8.19262 10.28 5.03033 17.7515C-9.47098 52.0105 13.773 84.7027 26.6885 114.798C26.5299 114.89 26.3705 114.98 26.2111 115.07C23.6632 116.536 24.5695 117.592 26.8553 117.885C27.222 117.933 27.6065 117.947 28.0014 117.94C28.5123 119.198 29.0087 120.454 29.4737 121.703C30.6579 124.887 44.4628 120.005 43.6083 117.708C42.9485 115.935 42.2487 114.169 41.5189 112.411C58.0632 103.112 75.3767 94.2674 90.3302 82.3469C103.815 71.5974 115.177 56.3368 116.143 38.1543Z" fill="#D40626" fill-opacity="0.7"/>
</svg>
