<svg width="127" height="109" viewBox="0 0 127 109" fill="none" xmlns="http://www.w3.org/2000/svg">
<path d="M35.2983 36.7501C35.2879 36.7188 35.281 36.6876 35.2717 36.6563C35.2972 36.6771 35.3237 36.6989 35.3492 36.7197C35.3318 36.7302 35.3157 36.7397 35.2983 36.7501ZM114.359 4.78973C101.24 -4.42429 82.4398 0.907982 71.6148 10.2129C65.521 15.4514 63.071 22.6005 62.0436 30.1046C55.3559 23.0663 48.1573 16.5913 36.8388 15.2762C21.2548 13.466 2.63143 24.1542 0.350164 36.9991C-2.31593 52.0168 10.7095 65.1922 23.5488 74.499C40.5069 86.791 59.574 97.374 77.6323 108.546C81.9186 111.198 95.8084 101.403 94.4771 100.578C93.0152 99.6747 91.5498 98.7771 90.0868 97.8758C94.1477 96.1943 98.5149 93.8103 99.1898 92.9459C110.178 78.8835 120.802 63.8856 125.089 47.3823C128.617 33.8008 128.416 14.6618 114.359 4.78973Z" fill="#AB0A25"/>
</svg>
