<svg width="98" height="78" viewBox="0 0 98 78" fill="none" xmlns="http://www.w3.org/2000/svg">
<path d="M28.0637 17.3639C28.0611 17.3393 28.061 17.3152 28.0593 17.2907C28.0747 17.3102 28.0907 17.3305 28.1061 17.3499C28.0916 17.3548 28.0782 17.3591 28.0637 17.3639ZM91.6049 6.7738C83.4163 -2.13329 68.6745 -1.28086 59.1747 3.78987C53.827 6.64469 50.8588 11.497 48.883 16.842C45.0885 10.5815 40.8255 4.65159 32.6845 1.84052C21.4753 -2.02962 5.99506 2.78601 2.22737 11.8499C-2.17688 22.4473 5.29995 34.249 13.2671 43.1787C23.79 54.9726 36.1469 65.855 47.6637 77.0055C50.3972 79.6523 62.2387 74.7209 61.3898 73.8981C60.4573 72.9963 59.5213 72.0981 58.5876 71.1975C61.8579 70.6243 65.4681 69.585 66.1065 69.06C76.4983 60.521 86.7732 51.2354 92.6152 39.8112C97.4228 30.4094 100.379 16.3172 91.6049 6.7738Z" fill="#FE3553"/>
</svg>
