<svg width="41" height="37" viewBox="0 0 41 37" fill="none" xmlns="http://www.w3.org/2000/svg">
<path d="M11.5411 10.2007C11.5393 10.1898 11.5385 10.179 11.537 10.1682C11.544 10.1762 11.5514 10.1846 11.5584 10.1927C11.5525 10.1955 11.547 10.198 11.5411 10.2007ZM37.7491 2.80223C34.0534 -0.839791 27.9233 0.158847 24.1132 2.82519C21.9683 4.32633 20.879 6.62145 20.2196 9.09546C18.4409 6.4535 16.4768 3.97905 12.9899 3.0623C8.18877 1.80022 1.8731 4.60286 0.580479 8.81568C-0.930473 13.7412 2.55769 18.7081 6.1616 22.3694C10.9216 27.2053 16.4193 31.5565 21.5745 36.0628C22.7981 37.1325 27.5905 34.4304 27.2105 34.0978C26.7931 33.7334 26.3744 33.3708 25.9566 33.007C27.3046 32.6136 28.7801 31.9974 29.0304 31.7358C33.1057 27.4805 37.109 22.896 39.1947 17.5403C40.9112 13.1328 41.7092 6.7044 37.7491 2.80223Z" fill="#6A1025"/>
</svg>
