<svg width="62" height="47" viewBox="0 0 62 47" fill="none" xmlns="http://www.w3.org/2000/svg">
<path d="M42.0708 32.0515C37.7128 34.9864 33.0651 37.6922 28.4159 40.383C26.6912 38.5894 24.8684 36.8212 23.0434 35.0497C23.758 34.7692 24.3011 34.504 24.4517 34.3387C31.0016 27.1138 37.5972 19.8921 45.0529 13.2149C44.4571 14.2692 43.6945 15.2645 43.2572 15.9523C41.6706 18.4448 39.8155 20.8235 37.9358 23.1844C34.1776 27.9055 30.33 32.5859 28.0243 37.896C27.669 38.7135 30.3497 38.1509 30.574 38.1019C32.043 37.7799 33.6962 37.2474 34.7317 36.3818C39.7733 32.1658 45.0879 28.1646 50.6585 24.3702C48.441 27.2744 45.3997 29.8102 42.0708 32.0515ZM8.22485 4.51315C8.42032 4.0744 8.73707 3.65643 9.00789 3.24306C9.1111 3.27113 9.21371 3.29911 9.31693 3.32718C10.0202 3.86613 11.3599 4.19006 12.1746 4.72163C12.8877 5.18904 13.5492 5.72081 14.1599 6.26398C14.9794 6.99354 15.7286 7.77568 16.4317 8.58962C15.9982 8.74085 15.6833 8.86048 15.6033 8.89626C12.728 10.1872 10.0284 11.6486 7.49402 13.2642C7.47443 13.1694 7.4487 13.0764 7.42974 12.9812C6.86332 10.1159 7.03409 7.20735 8.22485 4.51315ZM26.8147 23.1072C28.2504 22.8446 30.1933 22.0201 31.2756 21.3891C29.5228 23.1475 27.8055 24.9279 26.1138 26.723C26.3472 25.5177 26.5807 24.3124 26.8147 23.1072ZM15.8769 26.996C17.2722 25.9607 18.6675 24.9253 20.0628 23.89C19.6167 26.1902 19.1713 28.49 18.7253 30.7898C17.5922 29.6377 16.4902 28.4745 15.4439 27.2913C15.5936 27.197 15.7383 27.0986 15.8769 26.996ZM21.0885 19.5561C19.9632 20.3909 18.8385 21.2258 17.7132 22.0607C18.3123 20.3148 18.912 18.5689 19.5111 16.823C19.8081 15.9578 20.1118 15.0986 20.3845 14.2373C21.2648 15.7393 22.0755 17.2681 22.873 18.7726C21.9668 19.1166 21.2515 19.435 21.0885 19.5561ZM8.30372 16.095C8.44377 16.0016 8.57981 15.9064 8.70442 15.8056C10.4643 14.3841 12.3402 13.0879 14.3347 11.901C14.1909 14.4863 13.1281 16.9763 12.2793 19.4506C11.9791 20.3246 11.6788 21.1987 11.3791 22.0727C10.1093 20.1608 9.0539 18.1775 8.30372 16.095ZM38.197 12.2212C40.3023 9.52496 42.3755 6.50395 45.2434 4.23415C47.0621 2.792 49.4375 4.6202 51.1107 6.55742C49.2646 6.55167 46.1889 8.09017 45.4965 8.63054C40.8236 12.2935 36.5262 16.1961 32.4405 20.2305C34.2481 17.512 36.1552 14.8361 38.197 12.2212ZM53.927 17.6515C53.7793 18.315 53.5795 18.9599 53.3462 19.593C48.3025 22.7006 43.4467 25.9713 38.7781 29.3909C40.8063 26.4327 43.1327 23.5974 45.3988 20.7345C47.2692 18.3718 49.0986 15.9806 50.6314 13.4688C51.3008 12.3713 52.6397 10.6423 52.8956 9.06719C52.928 9.12921 52.959 9.18658 52.9862 9.23904C54.3438 11.9605 54.5488 14.8761 53.927 17.6515ZM60.966 9.89022C60.3364 6.9164 58.2723 2.90729 54.3109 1.52881C50.3155 0.14252 45.1295 1.80835 41.9014 3.43181C38.1265 5.33332 35.8395 8.38807 33.4791 11.2473C32.1248 12.8873 30.8296 14.5548 29.5732 16.2405C28.2929 13.9959 27.0003 11.7547 25.6098 9.54883C23.7976 6.67534 21.5691 3.80114 18.1511 1.83169C14.5335 -0.252144 10.6526 0.0172079 6.93093 1.41642C3.28962 2.7826 1.48215 5.07035 0.642254 8.07926C-3.20961 21.8761 12.5053 33.0583 22.5365 43.806C22.4635 43.8493 22.3899 43.892 22.3164 43.9347C21.1437 44.6282 21.7326 44.9812 22.9598 44.9704C23.1568 44.969 23.3594 44.9536 23.5651 44.9299C23.9693 45.3807 24.3657 45.8316 24.7448 46.2814C25.7108 47.4283 32.3978 44.8342 31.7008 44.0068C31.1628 43.3683 30.6045 42.7346 30.0314 42.1053C37.6699 37.6861 45.76 33.3983 52.2811 28.0677C58.1618 23.2606 62.4409 16.8527 60.966 9.89022Z" fill="#D40626"/>
</svg>
